<svg width="131" height="131" viewBox="0 0 131 131" fill="none" xmlns="http://www.w3.org/2000/svg">
<rect x="27" y="24" width="76" height="83" fill="#F4F4F4"/>
<path d="M103.793 19.1507H27.207C12.181 19.1507 0 31.3317 0 46.3577V84.6426C0 99.6686 12.181 111.85 27.207 111.85H103.793C118.819 111.85 131 99.6686 131 84.6426V46.3577C131 31.3317 118.819 19.1507 103.793 19.1507ZM85.3931 67.3629L49.5713 84.4477C48.6168 84.9029 47.5143 84.207 47.5143 83.1496V47.9121C47.5143 46.8397 48.6458 46.1446 49.6023 46.6294L85.424 64.7821C86.4891 65.3217 86.4706 66.8491 85.3931 67.3629Z" fill="#C35DFE"/>
</svg>
