<svg width="519" height="47" viewBox="0 0 519 47" fill="none" xmlns="http://www.w3.org/2000/svg">
<path d="M11.8438 0.625L20.2188 20.375L28.625 0.625H40.4375L25.8125 29.7812V46.125H14.6562V29.7812L0 0.625H11.8438ZM66.375 0.625V46.125H55.4062V0.625H66.375ZM80.0625 0.625V9.09375H42.0312V0.625H80.0625ZM113.562 46.125H103.469L103.531 37.6875H113.562C115.646 37.6875 117.406 37.1875 118.844 36.1875C120.302 35.1875 121.406 33.6979 122.156 31.7188C122.927 29.7188 123.312 27.2604 123.312 24.3438V22.375C123.312 20.1875 123.094 18.2708 122.656 16.625C122.24 14.9583 121.615 13.5729 120.781 12.4688C119.948 11.3438 118.906 10.5 117.656 9.9375C116.427 9.375 115.01 9.09375 113.406 9.09375H103.281V0.625H113.406C116.49 0.625 119.312 1.15625 121.875 2.21875C124.458 3.26042 126.688 4.76042 128.562 6.71875C130.458 8.65625 131.917 10.9583 132.938 13.625C133.979 16.2708 134.5 19.2083 134.5 22.4375V24.3438C134.5 27.5521 133.979 30.4896 132.938 33.1562C131.917 35.8229 130.469 38.125 128.594 40.0625C126.719 42 124.5 43.5 121.938 44.5625C119.396 45.6042 116.604 46.125 113.562 46.125ZM109.75 0.625V46.125H98.7812V0.625H109.75ZM178.719 22.4688V24.3125C178.719 27.7917 178.229 30.9167 177.25 33.6875C176.292 36.4375 174.927 38.7917 173.156 40.75C171.385 42.6875 169.292 44.1771 166.875 45.2188C164.458 46.2396 161.792 46.75 158.875 46.75C155.938 46.75 153.25 46.2396 150.812 45.2188C148.396 44.1771 146.292 42.6875 144.5 40.75C142.729 38.7917 141.354 36.4375 140.375 33.6875C139.417 30.9167 138.938 27.7917 138.938 24.3125V22.4688C138.938 18.9896 139.417 15.8646 140.375 13.0938C141.354 10.3229 142.719 7.96875 144.469 6.03125C146.24 4.07292 148.333 2.58333 150.75 1.5625C153.188 0.520833 155.875 0 158.812 0C161.729 0 164.396 0.520833 166.812 1.5625C169.25 2.58333 171.354 4.07292 173.125 6.03125C174.896 7.96875 176.271 10.3229 177.25 13.0938C178.229 15.8646 178.719 18.9896 178.719 22.4688ZM167.594 24.3125V22.4062C167.594 20.1562 167.396 18.1771 167 16.4688C166.625 14.7396 166.062 13.2917 165.312 12.125C164.562 10.9583 163.635 10.0833 162.531 9.5C161.448 8.89583 160.208 8.59375 158.812 8.59375C157.354 8.59375 156.083 8.89583 155 9.5C153.917 10.0833 153.01 10.9583 152.281 12.125C151.552 13.2917 151 14.7396 150.625 16.4688C150.271 18.1771 150.094 20.1562 150.094 22.4062V24.3125C150.094 26.5417 150.271 28.5208 150.625 30.25C151 31.9583 151.552 33.4062 152.281 34.5938C153.031 35.7812 153.948 36.6771 155.031 37.2812C156.135 37.8854 157.417 38.1875 158.875 38.1875C160.271 38.1875 161.51 37.8854 162.594 37.2812C163.677 36.6771 164.583 35.7812 165.312 34.5938C166.062 33.4062 166.625 31.9583 167 30.25C167.396 28.5208 167.594 26.5417 167.594 24.3125ZM194.906 42L203.969 0.625H209.375L212.312 4.15625L202.656 46.125H196.688L194.906 42ZM192.5 0.625L200.156 42.3125L198.188 46.125H191.281L181.625 0.625H192.5ZM217.281 42.0938L224.875 0.625H235.719L226.062 46.125H219.188L217.281 42.0938ZM213.281 0.625L222.562 42.25L220.688 46.125H214.719L204.844 4.09375L207.906 0.625H213.281ZM278.031 0.625V46.125H267.094L251 17.8125V46.125H240.031V0.625H251L267.094 28.9375V0.625H278.031ZM315.031 37.6875V46.125H292.031V37.6875H315.031ZM295.938 0.625V46.125H284.969V0.625H295.938ZM356.156 22.4688V24.3125C356.156 27.7917 355.667 30.9167 354.688 33.6875C353.729 36.4375 352.365 38.7917 350.594 40.75C348.823 42.6875 346.729 44.1771 344.312 45.2188C341.896 46.2396 339.229 46.75 336.312 46.75C333.375 46.75 330.688 46.2396 328.25 45.2188C325.833 44.1771 323.729 42.6875 321.938 40.75C320.167 38.7917 318.792 36.4375 317.812 33.6875C316.854 30.9167 316.375 27.7917 316.375 24.3125V22.4688C316.375 18.9896 316.854 15.8646 317.812 13.0938C318.792 10.3229 320.156 7.96875 321.906 6.03125C323.677 4.07292 325.771 2.58333 328.188 1.5625C330.625 0.520833 333.312 0 336.25 0C339.167 0 341.833 0.520833 344.25 1.5625C346.688 2.58333 348.792 4.07292 350.562 6.03125C352.333 7.96875 353.708 10.3229 354.688 13.0938C355.667 15.8646 356.156 18.9896 356.156 22.4688ZM345.031 24.3125V22.4062C345.031 20.1562 344.833 18.1771 344.438 16.4688C344.062 14.7396 343.5 13.2917 342.75 12.125C342 10.9583 341.073 10.0833 339.969 9.5C338.885 8.89583 337.646 8.59375 336.25 8.59375C334.792 8.59375 333.521 8.89583 332.438 9.5C331.354 10.0833 330.448 10.9583 329.719 12.125C328.99 13.2917 328.438 14.7396 328.062 16.4688C327.708 18.1771 327.531 20.1562 327.531 22.4062V24.3125C327.531 26.5417 327.708 28.5208 328.062 30.25C328.438 31.9583 328.99 33.4062 329.719 34.5938C330.469 35.7812 331.385 36.6771 332.469 37.2812C333.573 37.8854 334.854 38.1875 336.312 38.1875C337.708 38.1875 338.948 37.8854 340.031 37.2812C341.115 36.6771 342.021 35.7812 342.75 34.5938C343.5 33.4062 344.062 31.9583 344.438 30.25C344.833 28.5208 345.031 26.5417 345.031 24.3125ZM380.438 10.1875L369.344 46.125H357.562L374.281 0.625H381.75L380.438 10.1875ZM389.625 46.125L378.5 10.1875L377.062 0.625H384.625L401.438 46.125H389.625ZM389.188 29.1562V37.625H365.844V29.1562H389.188ZM419.562 46.125H409.469L409.531 37.6875H419.562C421.646 37.6875 423.406 37.1875 424.844 36.1875C426.302 35.1875 427.406 33.6979 428.156 31.7188C428.927 29.7188 429.312 27.2604 429.312 24.3438V22.375C429.312 20.1875 429.094 18.2708 428.656 16.625C428.24 14.9583 427.615 13.5729 426.781 12.4688C425.948 11.3438 424.906 10.5 423.656 9.9375C422.427 9.375 421.01 9.09375 419.406 9.09375H409.281V0.625H419.406C422.49 0.625 425.312 1.15625 427.875 2.21875C430.458 3.26042 432.688 4.76042 434.562 6.71875C436.458 8.65625 437.917 10.9583 438.938 13.625C439.979 16.2708 440.5 19.2083 440.5 22.4375V24.3438C440.5 27.5521 439.979 30.4896 438.938 33.1562C437.917 35.8229 436.469 38.125 434.594 40.0625C432.719 42 430.5 43.5 427.938 44.5625C425.396 45.6042 422.604 46.125 419.562 46.125ZM415.75 0.625V46.125H404.781V0.625H415.75ZM477.531 37.6875V46.125H453.281V37.6875H477.531ZM457.188 0.625V46.125H446.219V0.625H457.188ZM474.406 18.6875V26.8438H453.281V18.6875H474.406ZM477.625 0.625V9.09375H453.281V0.625H477.625ZM482.031 0.625H499.938C503.438 0.625 506.479 1.14583 509.062 2.1875C511.646 3.22917 513.635 4.77083 515.031 6.8125C516.448 8.85417 517.156 11.375 517.156 14.375C517.156 16.9792 516.75 19.1562 515.938 20.9062C515.125 22.6562 513.99 24.1042 512.531 25.25C511.094 26.375 509.417 27.3021 507.5 28.0312L503.906 30.0625H488.875L488.812 21.5938H499.938C501.333 21.5938 502.49 21.3438 503.406 20.8438C504.323 20.3438 505.01 19.6354 505.469 18.7188C505.948 17.7812 506.188 16.6667 506.188 15.375C506.188 14.0625 505.948 12.9375 505.469 12C504.99 11.0625 504.281 10.3438 503.344 9.84375C502.427 9.34375 501.292 9.09375 499.938 9.09375H493V46.125H482.031V0.625ZM506.938 46.125L496.875 26L508.5 25.9375L518.688 45.6562V46.125H506.938Z" fill="white"/>
</svg>
