<svg width="685" height="131" viewBox="0 0 685 131" fill="none" xmlns="http://www.w3.org/2000/svg">
<path d="M173.125 41.5L181.5 61.25L189.906 41.5H201.719L187.094 70.6562V87H175.938V70.6562L161.281 41.5H173.125ZM227.656 41.5V87H216.688V41.5H227.656ZM241.344 41.5V49.9688H203.312V41.5H241.344ZM274.844 87H264.75L264.812 78.5625H274.844C276.927 78.5625 278.688 78.0625 280.125 77.0625C281.583 76.0625 282.688 74.5729 283.438 72.5938C284.208 70.5938 284.594 68.1354 284.594 65.2188V63.25C284.594 61.0625 284.375 59.1458 283.938 57.5C283.521 55.8333 282.896 54.4479 282.062 53.3438C281.229 52.2188 280.188 51.375 278.938 50.8125C277.708 50.25 276.292 49.9688 274.688 49.9688H264.562V41.5H274.688C277.771 41.5 280.594 42.0312 283.156 43.0938C285.74 44.1354 287.969 45.6354 289.844 47.5938C291.74 49.5312 293.198 51.8333 294.219 54.5C295.26 57.1458 295.781 60.0833 295.781 63.3125V65.2188C295.781 68.4271 295.26 71.3646 294.219 74.0312C293.198 76.6979 291.75 79 289.875 80.9375C288 82.875 285.781 84.375 283.219 85.4375C280.677 86.4792 277.885 87 274.844 87ZM271.031 41.5V87H260.062V41.5H271.031ZM340 63.3438V65.1875C340 68.6667 339.51 71.7917 338.531 74.5625C337.573 77.3125 336.208 79.6667 334.438 81.625C332.667 83.5625 330.573 85.0521 328.156 86.0938C325.74 87.1146 323.073 87.625 320.156 87.625C317.219 87.625 314.531 87.1146 312.094 86.0938C309.677 85.0521 307.573 83.5625 305.781 81.625C304.01 79.6667 302.635 77.3125 301.656 74.5625C300.698 71.7917 300.219 68.6667 300.219 65.1875V63.3438C300.219 59.8646 300.698 56.7396 301.656 53.9688C302.635 51.1979 304 48.8438 305.75 46.9062C307.521 44.9479 309.615 43.4583 312.031 42.4375C314.469 41.3958 317.156 40.875 320.094 40.875C323.01 40.875 325.677 41.3958 328.094 42.4375C330.531 43.4583 332.635 44.9479 334.406 46.9062C336.177 48.8438 337.552 51.1979 338.531 53.9688C339.51 56.7396 340 59.8646 340 63.3438ZM328.875 65.1875V63.2812C328.875 61.0312 328.677 59.0521 328.281 57.3438C327.906 55.6146 327.344 54.1667 326.594 53C325.844 51.8333 324.917 50.9583 323.812 50.375C322.729 49.7708 321.49 49.4688 320.094 49.4688C318.635 49.4688 317.365 49.7708 316.281 50.375C315.198 50.9583 314.292 51.8333 313.562 53C312.833 54.1667 312.281 55.6146 311.906 57.3438C311.552 59.0521 311.375 61.0312 311.375 63.2812V65.1875C311.375 67.4167 311.552 69.3958 311.906 71.125C312.281 72.8333 312.833 74.2812 313.562 75.4688C314.312 76.6562 315.229 77.5521 316.312 78.1562C317.417 78.7604 318.698 79.0625 320.156 79.0625C321.552 79.0625 322.792 78.7604 323.875 78.1562C324.958 77.5521 325.865 76.6562 326.594 75.4688C327.344 74.2812 327.906 72.8333 328.281 71.125C328.677 69.3958 328.875 67.4167 328.875 65.1875ZM356.188 82.875L365.25 41.5H370.656L373.594 45.0312L363.938 87H357.969L356.188 82.875ZM353.781 41.5L361.438 83.1875L359.469 87H352.562L342.906 41.5H353.781ZM378.562 82.9688L386.156 41.5H397L387.344 87H380.469L378.562 82.9688ZM374.562 41.5L383.844 83.125L381.969 87H376L366.125 44.9688L369.188 41.5H374.562ZM439.312 41.5V87H428.375L412.281 58.6875V87H401.312V41.5H412.281L428.375 69.8125V41.5H439.312ZM476.312 78.5625V87H453.312V78.5625H476.312ZM457.219 41.5V87H446.25V41.5H457.219ZM517.438 63.3438V65.1875C517.438 68.6667 516.948 71.7917 515.969 74.5625C515.01 77.3125 513.646 79.6667 511.875 81.625C510.104 83.5625 508.01 85.0521 505.594 86.0938C503.177 87.1146 500.51 87.625 497.594 87.625C494.656 87.625 491.969 87.1146 489.531 86.0938C487.115 85.0521 485.01 83.5625 483.219 81.625C481.448 79.6667 480.073 77.3125 479.094 74.5625C478.135 71.7917 477.656 68.6667 477.656 65.1875V63.3438C477.656 59.8646 478.135 56.7396 479.094 53.9688C480.073 51.1979 481.438 48.8438 483.188 46.9062C484.958 44.9479 487.052 43.4583 489.469 42.4375C491.906 41.3958 494.594 40.875 497.531 40.875C500.448 40.875 503.115 41.3958 505.531 42.4375C507.969 43.4583 510.073 44.9479 511.844 46.9062C513.615 48.8438 514.99 51.1979 515.969 53.9688C516.948 56.7396 517.438 59.8646 517.438 63.3438ZM506.312 65.1875V63.2812C506.312 61.0312 506.115 59.0521 505.719 57.3438C505.344 55.6146 504.781 54.1667 504.031 53C503.281 51.8333 502.354 50.9583 501.25 50.375C500.167 49.7708 498.927 49.4688 497.531 49.4688C496.073 49.4688 494.802 49.7708 493.719 50.375C492.635 50.9583 491.729 51.8333 491 53C490.271 54.1667 489.719 55.6146 489.344 57.3438C488.99 59.0521 488.812 61.0312 488.812 63.2812V65.1875C488.812 67.4167 488.99 69.3958 489.344 71.125C489.719 72.8333 490.271 74.2812 491 75.4688C491.75 76.6562 492.667 77.5521 493.75 78.1562C494.854 78.7604 496.135 79.0625 497.594 79.0625C498.99 79.0625 500.229 78.7604 501.312 78.1562C502.396 77.5521 503.302 76.6562 504.031 75.4688C504.781 74.2812 505.344 72.8333 505.719 71.125C506.115 69.3958 506.312 67.4167 506.312 65.1875ZM541.719 51.0625L530.625 87H518.844L535.562 41.5H543.031L541.719 51.0625ZM550.906 87L539.781 51.0625L538.344 41.5H545.906L562.719 87H550.906ZM550.469 70.0312V78.5H527.125V70.0312H550.469ZM580.844 87H570.75L570.812 78.5625H580.844C582.927 78.5625 584.688 78.0625 586.125 77.0625C587.583 76.0625 588.688 74.5729 589.438 72.5938C590.208 70.5938 590.594 68.1354 590.594 65.2188V63.25C590.594 61.0625 590.375 59.1458 589.938 57.5C589.521 55.8333 588.896 54.4479 588.062 53.3438C587.229 52.2188 586.188 51.375 584.938 50.8125C583.708 50.25 582.292 49.9688 580.688 49.9688H570.562V41.5H580.688C583.771 41.5 586.594 42.0312 589.156 43.0938C591.74 44.1354 593.969 45.6354 595.844 47.5938C597.74 49.5312 599.198 51.8333 600.219 54.5C601.26 57.1458 601.781 60.0833 601.781 63.3125V65.2188C601.781 68.4271 601.26 71.3646 600.219 74.0312C599.198 76.6979 597.75 79 595.875 80.9375C594 82.875 591.781 84.375 589.219 85.4375C586.677 86.4792 583.885 87 580.844 87ZM577.031 41.5V87H566.062V41.5H577.031ZM638.812 78.5625V87H614.562V78.5625H638.812ZM618.469 41.5V87H607.5V41.5H618.469ZM635.688 59.5625V67.7188H614.562V59.5625H635.688ZM638.906 41.5V49.9688H614.562V41.5H638.906ZM643.312 41.5H661.219C664.719 41.5 667.76 42.0208 670.344 43.0625C672.927 44.1042 674.917 45.6458 676.312 47.6875C677.729 49.7292 678.438 52.25 678.438 55.25C678.438 57.8542 678.031 60.0312 677.219 61.7812C676.406 63.5312 675.271 64.9792 673.812 66.125C672.375 67.25 670.698 68.1771 668.781 68.9062L665.188 70.9375H650.156L650.094 62.4688H661.219C662.615 62.4688 663.771 62.2188 664.688 61.7188C665.604 61.2188 666.292 60.5104 666.75 59.5938C667.229 58.6562 667.469 57.5417 667.469 56.25C667.469 54.9375 667.229 53.8125 666.75 52.875C666.271 51.9375 665.562 51.2188 664.625 50.7188C663.708 50.2188 662.573 49.9688 661.219 49.9688H654.281V87H643.312V41.5ZM668.219 87L658.156 66.875L669.781 66.8125L679.969 86.5312V87H668.219Z" fill="white"/>
<rect x="27" y="24" width="76" height="83" fill="#F4F4F4"/>
<path d="M103.793 19.1507H27.207C12.181 19.1507 0 31.3317 0 46.3577V84.6426C0 99.6686 12.181 111.85 27.207 111.85H103.793C118.819 111.85 131 99.6686 131 84.6426V46.3577C131 31.3317 118.819 19.1507 103.793 19.1507ZM85.3931 67.3629L49.5713 84.4477C48.6168 84.9029 47.5143 84.207 47.5143 83.1496V47.9121C47.5143 46.8397 48.6458 46.1446 49.6023 46.6294L85.424 64.7821C86.4891 65.3217 86.4706 66.8491 85.3931 67.3629Z" fill="#C35DFE"/>
</svg>
